<?xml version="1.0" standalone="no"?>
<!DOCTYPE svg PUBLIC "-//W3C//DTD SVG 20010904//EN"
 "http://www.w3.org/TR/2001/REC-SVG-20010904/DTD/svg10.dtd">
<svg version="1.0" xmlns="http://www.w3.org/2000/svg"
 width="2000.000000pt" height="203.000000pt" viewBox="0 0 2000.000000 203.000000"
 preserveAspectRatio="xMidYMid meet">

<g transform="translate(0.000000,203.000000) scale(0.100000,-0.100000)"
fill="#000000" stroke="none">
<path d="M8184 1964 c-9 -21 -187 -443 -395 -938 -209 -494 -379 -900 -379
-902 0 -2 71 -4 158 -4 l158 0 78 190 78 190 316 -2 315 -3 76 -185 76 -185
167 -3 167 -2 -19 42 c-10 24 -188 446 -395 938 -208 492 -379 897 -381 899
-2 2 -11 -13 -20 -35z m145 -1029 c35 -82 66 -156 68 -162 4 -10 -39 -13 -194
-13 -110 0 -202 2 -205 5 -3 4 22 73 57 155 68 161 108 269 126 340 l11 45 37
-110 c21 -60 66 -177 100 -260z"/>
<path d="M15180 1110 c-279 -661 -378 -886 -386 -877 -6 7 -109 169 -229 361
-131 210 -214 351 -207 354 32 10 124 98 161 153 57 85 83 173 84 284 1 244
-143 444 -377 522 -81 27 -83 27 -418 31 l-338 3 0 -910 0 -911 160 0 160 0 0
365 0 365 133 0 132 0 222 -363 221 -362 293 0 292 0 77 185 76 185 315 3 315
2 78 -190 79 -190 163 0 c90 0 164 2 164 5 0 8 -782 1860 -789 1867 -3 4 -175
-393 -381 -882z m-1049 514 c107 -49 164 -139 157 -248 -5 -72 -26 -121 -75
-169 -65 -66 -143 -86 -330 -87 l-93 0 0 266 0 266 148 -4 c121 -3 155 -7 193
-24z m1443 -396 c10 -35 53 -150 97 -256 43 -106 79 -198 79 -203 0 -5 -83 -9
-200 -9 -110 0 -200 3 -200 8 0 4 31 81 69 172 38 91 82 207 97 257 16 51 32
93 35 93 3 0 14 -28 23 -62z"/>
<path d="M2290 1057 l0 -937 150 0 150 0 0 448 c-1 246 -5 481 -10 522 -4 41
-7 76 -6 77 1 2 39 -52 84 -118 83 -122 482 -652 487 -647 34 41 469 643 498
690 23 37 44 67 48 68 3 0 2 -30 -2 -67 -5 -38 -8 -272 -8 -520 l-1 -453 155
0 155 0 0 937 0 936 -42 -54 c-24 -30 -211 -274 -417 -542 -206 -268 -378
-487 -382 -487 -4 0 -193 237 -420 528 -226 290 -418 534 -425 542 -12 12 -14
-132 -14 -923z"/>
<path d="M6241 1438 c-121 -305 -221 -562 -221 -571 0 -43 -20 -18 -43 53 -13
44 -107 291 -208 550 l-183 470 -168 0 c-92 0 -168 -3 -168 -7 0 -19 726
-1861 731 -1855 10 12 369 910 424 1061 l53 144 17 -54 c23 -75 456 -1161 461
-1157 2 2 166 420 365 928 198 509 363 928 366 933 2 4 -70 7 -160 7 l-164 0
-174 -447 c-95 -247 -188 -493 -207 -548 -18 -55 -35 -101 -37 -103 -2 -2 -9
14 -15 35 -14 43 -428 1080 -440 1102 -4 8 -89 -192 -229 -541z"/>
<path d="M210 1795 l0 -145 225 0 225 0 0 -765 0 -765 170 0 170 0 0 765 0
765 225 0 225 0 0 145 0 145 -620 0 -620 0 0 -145z"/>
<path d="M1640 1030 l0 -910 170 0 170 0 0 910 0 910 -170 0 -170 0 0 -910z"/>
<path d="M4290 1030 l0 -910 475 0 475 0 0 150 0 150 -315 0 -315 0 0 325 0
325 245 0 246 0 -3 138 -3 137 -242 3 -243 2 0 155 0 155 315 0 315 0 0 140 0
140 -475 0 -475 0 0 -910z"/>
<path d="M9110 1030 l0 -910 450 0 450 0 0 150 0 150 -280 0 -280 0 0 760 0
760 -170 0 -170 0 0 -910z"/>
<path d="M10200 1030 l0 -910 160 0 160 0 0 556 c0 305 4 553 8 550 5 -3 161
-253 348 -555 l339 -551 194 0 193 0 -15 23 c-8 12 -166 266 -352 565 -239
385 -334 546 -327 555 5 6 125 162 266 345 l256 332 -188 0 -189 0 -257 -337
c-142 -186 -262 -339 -267 -341 -5 -2 -9 136 -9 337 l0 341 -160 0 -160 0 0
-910z"/>
<path d="M12040 1795 l0 -145 228 -2 227 -3 3 -762 2 -763 165 0 165 0 0 765
0 765 230 0 230 0 0 145 0 145 -625 0 -625 0 0 -145z"/>
<path d="M16337 1333 c134 -335 303 -755 376 -936 72 -180 134 -324 138 -320
7 8 749 1848 749 1858 0 3 -73 5 -162 5 l-163 -1 -185 -470 c-102 -259 -194
-497 -205 -529 -11 -32 -23 -61 -26 -65 -4 -3 -14 16 -23 42 -9 26 -102 267
-208 536 l-192 487 -172 0 -172 0 245 -607z"/>
<path d="M17710 1030 l0 -910 475 0 476 0 -3 147 -3 148 -317 3 -318 2 0 325
0 325 245 0 245 0 0 140 0 140 -245 0 -246 0 3 153 3 152 318 3 317 2 0 140 0
140 -475 0 -475 0 0 -910z"/>
<path d="M18860 1030 l0 -910 450 0 450 0 0 150 0 150 -285 0 -285 0 0 760 0
760 -165 0 -165 0 0 -910z"/>
</g>
</svg>
